<svg xmlns="http://www.w3.org/2000/svg" viewBox="0 0 304 84"><g id="Lager_2" data-name="Lager 2"><g id="Lager_1-2" data-name="Lager 1"><circle cx="2" cy="2" r="2"/><circle cx="2" cy="12" r="2"/><circle cx="12" cy="12" r="2"/><circle cx="2" cy="22" r="2"/><circle cx="12" cy="22" r="2"/><circle cx="22" cy="22" r="2"/><circle cx="2" cy="32" r="2"/><circle cx="12" cy="32" r="2"/><circle cx="22" cy="32" r="2"/><circle cx="32" cy="32" r="2"/><circle cx="2" cy="42" r="2"/><circle cx="12" cy="42" r="2"/><circle cx="22" cy="42" r="2"/><circle cx="32" cy="42" r="2"/><circle cx="42" cy="42" r="2"/><circle cx="2" cy="52" r="2"/><circle cx="12" cy="52" r="2"/><circle cx="22" cy="52" r="2"/><circle cx="32" cy="52" r="2"/><circle cx="2" cy="62" r="2"/><circle cx="12" cy="62" r="2"/><circle cx="22" cy="62" r="2"/><circle cx="2" cy="72" r="2"/><circle cx="12" cy="72" r="2"/><circle cx="2" cy="82" r="2"/><circle cx="72" cy="2" r="2"/><circle cx="72" cy="12" r="2"/><circle cx="82" cy="12" r="2"/><circle cx="72" cy="22" r="2"/><circle cx="82" cy="22" r="2"/><circle cx="92" cy="22" r="2"/><circle cx="72" cy="32" r="2"/><circle cx="82" cy="32" r="2"/><circle cx="92" cy="32" r="2"/><circle cx="102" cy="32" r="2"/><circle cx="72" cy="42" r="2"/><circle cx="82" cy="42" r="2"/><circle cx="92" cy="42" r="2"/><circle cx="102" cy="42" r="2"/><circle cx="112" cy="42" r="2"/><circle cx="72" cy="52" r="2"/><circle cx="82" cy="52" r="2"/><circle cx="92" cy="52" r="2"/><circle cx="102" cy="52" r="2"/><circle cx="72" cy="62" r="2"/><circle cx="82" cy="62" r="2"/><circle cx="92" cy="62" r="2"/><circle cx="72" cy="72" r="2"/><circle cx="82" cy="72" r="2"/><circle cx="72" cy="82" r="2"/><circle cx="192" cy="2" r="2"/><circle cx="192" cy="12" r="2"/><circle cx="202" cy="12" r="2"/><circle cx="192" cy="22" r="2"/><circle cx="202" cy="22" r="2"/><circle cx="212" cy="22" r="2"/><circle cx="192" cy="32" r="2"/><circle cx="202" cy="32" r="2"/><circle cx="212" cy="32" r="2"/><circle cx="222" cy="32" r="2"/><circle cx="192" cy="42" r="2"/><circle cx="202" cy="42" r="2"/><circle cx="212" cy="42" r="2"/><circle cx="222" cy="42" r="2"/><circle cx="232" cy="42" r="2"/><circle cx="192" cy="52" r="2"/><circle cx="202" cy="52" r="2"/><circle cx="212" cy="52" r="2"/><circle cx="222" cy="52" r="2"/><circle cx="192" cy="62" r="2"/><circle cx="202" cy="62" r="2"/><circle cx="212" cy="62" r="2"/><circle cx="192" cy="72" r="2"/><circle cx="202" cy="72" r="2"/><circle cx="192" cy="82" r="2"/><circle cx="262" cy="2" r="2"/><circle cx="262" cy="12" r="2"/><circle cx="272" cy="12" r="2"/><circle cx="262" cy="22" r="2"/><circle cx="272" cy="22" r="2"/><circle cx="282" cy="22" r="2"/><circle cx="262" cy="32" r="2"/><circle cx="272" cy="32" r="2"/><circle cx="282" cy="32" r="2"/><circle cx="292" cy="32" r="2"/><circle cx="262" cy="42" r="2"/><circle cx="272" cy="42" r="2"/><circle cx="282" cy="42" r="2"/><circle cx="292" cy="42" r="2"/><circle cx="302" cy="42" r="2"/><circle cx="262" cy="52" r="2"/><circle cx="272" cy="52" r="2"/><circle cx="282" cy="52" r="2"/><circle cx="292" cy="52" r="2"/><circle cx="262" cy="62" r="2"/><circle cx="272" cy="62" r="2"/><circle cx="282" cy="62" r="2"/><circle cx="262" cy="72" r="2"/><circle cx="272" cy="72" r="2"/><circle cx="262" cy="82" r="2"/></g></g></svg>