<svg xmlns="http://www.w3.org/2000/svg" viewBox="0 0 293 293"><defs><style>.cls-1{fill:#5e1d66;}.cls-2{fill:#f7acbb;}.cls-3{font-size:200px;font-family:Roboto-Bold, Roboto;font-weight:700;}</style></defs><g id="Lager_2" data-name="Lager 2"><g id="Lager_1-2" data-name="Lager 1"><g id="Formen_och_färgerna" data-name="Formen och färgerna"><path id="Lila_tri" data-name="Lila tri" class="cls-1" d="M210.41,0,97.17,28.21,0,52.41V32A32,32,0,0,1,32,0Z"/><path id="Pink_tri" data-name="Pink tri" class="cls-2" d="M293,224.18V261a32,32,0,0,1-32,32H72.25Z"/><text class="cls-3" transform="translate(119.99 223.56)">i</text><g id="Formen"><path d="M261,2a30,30,0,0,1,30,30V261a30,30,0,0,1-30,30H32A30,30,0,0,1,2,261V32A30,30,0,0,1,32,2H261m0-2H32A32,32,0,0,0,0,32V261a32,32,0,0,0,32,32H261a32,32,0,0,0,32-32V32A32,32,0,0,0,261,0Z"/></g></g></g></g></svg>