<svg xmlns="http://www.w3.org/2000/svg" xmlns:xlink="http://www.w3.org/1999/xlink" viewBox="0 0 44 44"><defs><style>.cls-1{fill:url(#Namnlös_övertoning_2);}.cls-2{fill:#fff;}</style><linearGradient id="Namnlös_övertoning_2" x1="22" y1="-7.49" x2="22" y2="36.51" gradientTransform="matrix(1, 0, 0, -1, 0, 39.89)" gradientUnits="userSpaceOnUse"><stop offset="0" stop-color="#155cde"/><stop offset="0.28" stop-color="#1f7fe5"/><stop offset="0.57" stop-color="#279ceb"/><stop offset="0.82" stop-color="#2cafef"/><stop offset="1" stop-color="#2eb5f0"/></linearGradient></defs><g id="Lager_2" data-name="Lager 2"><g id="Lager_1-2" data-name="Lager 1"><path class="cls-1" d="M40,0H4A4,4,0,0,0,0,4V40a4,4,0,0,0,4,4H40a4,4,0,0,0,4-4V4A4,4,0,0,0,40,0Z"/><path class="cls-2" d="M9,16h2a2,2,0,0,1,2,2V35a2,2,0,0,1-2,2H9a2,2,0,0,1-2-2V18A2,2,0,0,1,9,16Zm1-3h0A2.88,2.88,0,0,1,7,10a2.88,2.88,0,0,1,3-3,2.87,2.87,0,0,1,3,3A2.89,2.89,0,0,1,10,13ZM35,37H33a2,2,0,0,1-2-2V25.63C31,22.88,29.49,21,26.76,21a3.83,3.83,0,0,0-3.62,2.49A8.55,8.55,0,0,0,23,25.75V35a2,2,0,0,1-2,2H19a2,2,0,0,1-2-2V18a2,2,0,0,1,2-2h2a2,2,0,0,1,2,2v1c.9-1.4,2.55-3,6.16-3C33.65,16,37,18.56,37,24.84V35A2,2,0,0,1,35,37Z"/></g></g></svg>