<svg width="48" height="48" viewBox="0 0 48 48" fill="none" xmlns="http://www.w3.org/2000/svg">
<path d="M22.03 10.5181H1.69C0.76 10.5181 0 11.2681 0 12.2081V21.0081C0 21.9381 0.76 22.6981 1.69 22.6981H22.03V10.5181Z" fill="#E17381"/>
<path d="M46.0304 10.5181H25.6904V22.6981H46.0304C46.9604 22.6981 47.7204 21.9381 47.7204 21.0081V12.2081C47.7204 11.2681 46.9604 10.5181 46.0304 10.5181Z" fill="#E17381"/>
<path d="M22.0297 25.7581H4.85973H2.46973V41.9981C2.46973 45.1681 5.36973 47.7481 8.92973 47.7481H22.0397V25.7581H22.0297Z" fill="#E17381"/>
<path d="M25.6895 25.7581V47.7481H39.0095C42.5695 47.7481 45.4695 45.1681 45.4695 41.9981V25.7581H25.6895Z" fill="#E17381"/>
<path d="M30.7202 1.75803L23.8602 8.61803L17.0002 1.75803C14.2302 -1.01197 9.51018 -0.441972 7.64018 2.99803C6.63018 4.85803 5.95018 7.34803 6.15018 10.658H21.8102H25.8902H41.5502C41.7502 7.34803 41.0702 4.85803 40.0602 2.99803C38.2102 -0.441972 33.4902 -1.01197 30.7202 1.75803Z" fill="#F5D8E5"/>
</svg>
