<svg xmlns="http://www.w3.org/2000/svg" viewBox="0 0 387.54 98.17"><defs><style>.cls-1{fill:#5e1d66;}.cls-2{fill:#f7acbb;}.cls-3{font-size:72px;font-family:Roboto-Bold, Roboto;font-weight:700;}</style></defs><g id="Lager_2" data-name="Lager 2"><g id="Lager_1-2" data-name="Lager 1"><g id="Formen_och_färgerna" data-name="Formen och färgerna"><path id="Lila_tri" data-name="Lila tri" class="cls-1" d="M70.63,3.83,32.69,13.29.13,21.4V14.56A10.73,10.73,0,0,1,10.85,3.83Z"/><path id="Pink_tri" data-name="Pink tri" class="cls-2" d="M98.17,75.11V87.45A10.72,10.72,0,0,1,87.45,98.17H24.21Z"/><text class="cls-3" transform="translate(41.09 74.91)">i</text><g id="Formen"><path d="M87.45,6a4.73,4.73,0,0,1,4.72,4.72V87.45a4.73,4.73,0,0,1-4.72,4.72H10.72A4.73,4.73,0,0,1,6,87.45V10.72A4.73,4.73,0,0,1,10.72,6H87.45m0-6H10.72A10.72,10.72,0,0,0,0,10.72V87.45A10.72,10.72,0,0,0,10.72,98.17H87.45A10.72,10.72,0,0,0,98.17,87.45V10.72A10.72,10.72,0,0,0,87.45,0Z"/></g></g><text id="ingrid" class="cls-3" transform="translate(154.81 75.3)">ingrid</text></g></g></svg>